<svg xmlns="http://www.w3.org/2000/svg" viewBox="0 0 900 190" width="900" height="190"><defs><filter id="gl" x="-60%" y="-60%" width="220%" height="220%"><feGaussianBlur stdDeviation="2.5" result="b"/><feMerge><feMergeNode in="b"/><feMergeNode in="SourceGraphic"/></feMerge></filter></defs><g transform="translate(0,0)"><g opacity="0"><animate attributeName="opacity" from="0" to="1" begin="0.00s" dur=".5s" fill="freeze"/><animateTransform attributeName="transform" type="translate" from="0 24" to="0 0" begin="0.00s" dur=".5s" fill="freeze"/><rect x="1" y="1" width="133" height="188" rx="12" fill="#0d1117" stroke="#c0c8d4" stroke-width="2"><animate attributeName="stroke-opacity" values=".45;1;.45" dur="3s" repeatCount="indefinite"/></rect><g transform="translate(67.5,50)" filter="url(#gl)"><animateTransform attributeName="transform" type="translate" additive="sum" values="0 0;0 -4;0 0" dur="2.5s" repeatCount="indefinite"/><path d="M-13,-16 H13 V-4 C13,6 6,12 0,12 C-6,12 -13,6 -13,-4 Z" fill="#c0c8d4"/><path d="M-13,-12 H-20 C-20,-2 -16,2 -11,3 M13,-12 H20 C20,-2 16,2 11,3" fill="none" stroke="#c0c8d4" stroke-width="3"/><rect x="-3" y="12" width="6" height="7" fill="#c0c8d4"/><rect x="-10" y="19" width="20" height="5" rx="2" fill="#c0c8d4"/></g><text x="67.5" y="110" text-anchor="middle" font-family="'Fira Code','JetBrains Mono','Courier New',monospace" font-size="26" font-weight="700" fill="#e6edf3">181</text><text x="67.5" y="132" text-anchor="middle" font-family="'Segoe UI',Roboto,Helvetica,Arial,sans-serif" font-size="13" fill="#8b949e">Commits</text><text x="67.5" y="153" text-anchor="middle" font-family="'Fira Code','JetBrains Mono','Courier New',monospace" font-size="11" font-weight="700" fill="#c0c8d4">PLATA</text><circle cx="43.5" cy="172" r="3.5" fill="#c0c8d4"/><circle cx="55.5" cy="172" r="3.5" fill="#c0c8d4"/><circle cx="67.5" cy="172" r="3.5" fill="#21262d"/><circle cx="79.5" cy="172" r="3.5" fill="#21262d"/><circle cx="91.5" cy="172" r="3.5" fill="#21262d"/></g></g><g transform="translate(153,0)"><g opacity="0"><animate attributeName="opacity" from="0" to="1" begin="0.15s" dur=".5s" fill="freeze"/><animateTransform attributeName="transform" type="translate" from="0 24" to="0 0" begin="0.15s" dur=".5s" fill="freeze"/><rect x="1" y="1" width="133" height="188" rx="12" fill="#0d1117" stroke="#7dd3fc" stroke-width="2"><animate attributeName="stroke-opacity" values=".45;1;.45" dur="3s" repeatCount="indefinite"/></rect><g transform="translate(67.5,50)" filter="url(#gl)"><animateTransform attributeName="transform" type="translate" additive="sum" values="0 0;0 -4;0 0" dur="2.8s" repeatCount="indefinite"/><path d="M-13,-16 H13 V-4 C13,6 6,12 0,12 C-6,12 -13,6 -13,-4 Z" fill="#7dd3fc"/><path d="M-13,-12 H-20 C-20,-2 -16,2 -11,3 M13,-12 H20 C20,-2 16,2 11,3" fill="none" stroke="#7dd3fc" stroke-width="3"/><rect x="-3" y="12" width="6" height="7" fill="#7dd3fc"/><rect x="-10" y="19" width="20" height="5" rx="2" fill="#7dd3fc"/></g><text x="67.5" y="110" text-anchor="middle" font-family="'Fira Code','JetBrains Mono','Courier New',monospace" font-size="26" font-weight="700" fill="#e6edf3">60</text><text x="67.5" y="132" text-anchor="middle" font-family="'Segoe UI',Roboto,Helvetica,Arial,sans-serif" font-size="13" fill="#8b949e">Pull Requests</text><text x="67.5" y="153" text-anchor="middle" font-family="'Fira Code','JetBrains Mono','Courier New',monospace" font-size="11" font-weight="700" fill="#7dd3fc">PLATINO</text><circle cx="43.5" cy="172" r="3.5" fill="#7dd3fc"/><circle cx="55.5" cy="172" r="3.5" fill="#7dd3fc"/><circle cx="67.5" cy="172" r="3.5" fill="#7dd3fc"/><circle cx="79.5" cy="172" r="3.5" fill="#7dd3fc"/><circle cx="91.5" cy="172" r="3.5" fill="#21262d"/></g></g><g transform="translate(306,0)"><g opacity="0"><animate attributeName="opacity" from="0" to="1" begin="0.30s" dur=".5s" fill="freeze"/><animateTransform attributeName="transform" type="translate" from="0 24" to="0 0" begin="0.30s" dur=".5s" fill="freeze"/><rect x="1" y="1" width="133" height="188" rx="12" fill="#0d1117" stroke="#30363d" stroke-width="2"></rect><g transform="translate(67.5,50)"><path d="M-13,-16 H13 V-4 C13,6 6,12 0,12 C-6,12 -13,6 -13,-4 Z" fill="#30363d"/><path d="M-13,-12 H-20 C-20,-2 -16,2 -11,3 M13,-12 H20 C20,-2 16,2 11,3" fill="none" stroke="#30363d" stroke-width="3"/><rect x="-3" y="12" width="6" height="7" fill="#30363d"/><rect x="-10" y="19" width="20" height="5" rx="2" fill="#30363d"/></g><text x="67.5" y="110" text-anchor="middle" font-family="'Fira Code','JetBrains Mono','Courier New',monospace" font-size="26" font-weight="700" fill="#e6edf3">0</text><text x="67.5" y="132" text-anchor="middle" font-family="'Segoe UI',Roboto,Helvetica,Arial,sans-serif" font-size="13" fill="#8b949e">Issues</text><text x="67.5" y="153" text-anchor="middle" font-family="'Fira Code','JetBrains Mono','Courier New',monospace" font-size="11" font-weight="700" fill="#30363d">BLOQUEADO</text><circle cx="43.5" cy="172" r="3.5" fill="#21262d"/><circle cx="55.5" cy="172" r="3.5" fill="#21262d"/><circle cx="67.5" cy="172" r="3.5" fill="#21262d"/><circle cx="79.5" cy="172" r="3.5" fill="#21262d"/><circle cx="91.5" cy="172" r="3.5" fill="#21262d"/></g></g><g transform="translate(459,0)"><g opacity="0"><animate attributeName="opacity" from="0" to="1" begin="0.45s" dur=".5s" fill="freeze"/><animateTransform attributeName="transform" type="translate" from="0 24" to="0 0" begin="0.45s" dur=".5s" fill="freeze"/><rect x="1" y="1" width="133" height="188" rx="12" fill="#0d1117" stroke="#c0c8d4" stroke-width="2"><animate attributeName="stroke-opacity" values=".45;1;.45" dur="3s" repeatCount="indefinite"/></rect><g transform="translate(67.5,50)" filter="url(#gl)"><animateTransform attributeName="transform" type="translate" additive="sum" values="0 0;0 -4;0 0" dur="3.4s" repeatCount="indefinite"/><path d="M-13,-16 H13 V-4 C13,6 6,12 0,12 C-6,12 -13,6 -13,-4 Z" fill="#c0c8d4"/><path d="M-13,-12 H-20 C-20,-2 -16,2 -11,3 M13,-12 H20 C20,-2 16,2 11,3" fill="none" stroke="#c0c8d4" stroke-width="3"/><rect x="-3" y="12" width="6" height="7" fill="#c0c8d4"/><rect x="-10" y="19" width="20" height="5" rx="2" fill="#c0c8d4"/></g><text x="67.5" y="110" text-anchor="middle" font-family="'Fira Code','JetBrains Mono','Courier New',monospace" font-size="26" font-weight="700" fill="#e6edf3">11</text><text x="67.5" y="132" text-anchor="middle" font-family="'Segoe UI',Roboto,Helvetica,Arial,sans-serif" font-size="13" fill="#8b949e">Repositorios</text><text x="67.5" y="153" text-anchor="middle" font-family="'Fira Code','JetBrains Mono','Courier New',monospace" font-size="11" font-weight="700" fill="#c0c8d4">PLATA</text><circle cx="43.5" cy="172" r="3.5" fill="#c0c8d4"/><circle cx="55.5" cy="172" r="3.5" fill="#c0c8d4"/><circle cx="67.5" cy="172" r="3.5" fill="#21262d"/><circle cx="79.5" cy="172" r="3.5" fill="#21262d"/><circle cx="91.5" cy="172" r="3.5" fill="#21262d"/></g></g><g transform="translate(612,0)"><g opacity="0"><animate attributeName="opacity" from="0" to="1" begin="0.60s" dur=".5s" fill="freeze"/><animateTransform attributeName="transform" type="translate" from="0 24" to="0 0" begin="0.60s" dur=".5s" fill="freeze"/><rect x="1" y="1" width="133" height="188" rx="12" fill="#0d1117" stroke="#30363d" stroke-width="2"></rect><g transform="translate(67.5,50)"><path d="M-13,-16 H13 V-4 C13,6 6,12 0,12 C-6,12 -13,6 -13,-4 Z" fill="#30363d"/><path d="M-13,-12 H-20 C-20,-2 -16,2 -11,3 M13,-12 H20 C20,-2 16,2 11,3" fill="none" stroke="#30363d" stroke-width="3"/><rect x="-3" y="12" width="6" height="7" fill="#30363d"/><rect x="-10" y="19" width="20" height="5" rx="2" fill="#30363d"/></g><text x="67.5" y="110" text-anchor="middle" font-family="'Fira Code','JetBrains Mono','Courier New',monospace" font-size="26" font-weight="700" fill="#e6edf3">0</text><text x="67.5" y="132" text-anchor="middle" font-family="'Segoe UI',Roboto,Helvetica,Arial,sans-serif" font-size="13" fill="#8b949e">Estrellas</text><text x="67.5" y="153" text-anchor="middle" font-family="'Fira Code','JetBrains Mono','Courier New',monospace" font-size="11" font-weight="700" fill="#30363d">BLOQUEADO</text><circle cx="43.5" cy="172" r="3.5" fill="#21262d"/><circle cx="55.5" cy="172" r="3.5" fill="#21262d"/><circle cx="67.5" cy="172" r="3.5" fill="#21262d"/><circle cx="79.5" cy="172" r="3.5" fill="#21262d"/><circle cx="91.5" cy="172" r="3.5" fill="#21262d"/></g></g><g transform="translate(765,0)"><g opacity="0"><animate attributeName="opacity" from="0" to="1" begin="0.75s" dur=".5s" fill="freeze"/><animateTransform attributeName="transform" type="translate" from="0 24" to="0 0" begin="0.75s" dur=".5s" fill="freeze"/><rect x="1" y="1" width="133" height="188" rx="12" fill="#0d1117" stroke="#30363d" stroke-width="2"></rect><g transform="translate(67.5,50)"><path d="M-13,-16 H13 V-4 C13,6 6,12 0,12 C-6,12 -13,6 -13,-4 Z" fill="#30363d"/><path d="M-13,-12 H-20 C-20,-2 -16,2 -11,3 M13,-12 H20 C20,-2 16,2 11,3" fill="none" stroke="#30363d" stroke-width="3"/><rect x="-3" y="12" width="6" height="7" fill="#30363d"/><rect x="-10" y="19" width="20" height="5" rx="2" fill="#30363d"/></g><text x="67.5" y="110" text-anchor="middle" font-family="'Fira Code','JetBrains Mono','Courier New',monospace" font-size="26" font-weight="700" fill="#e6edf3">0</text><text x="67.5" y="132" text-anchor="middle" font-family="'Segoe UI',Roboto,Helvetica,Arial,sans-serif" font-size="13" fill="#8b949e">Seguidores</text><text x="67.5" y="153" text-anchor="middle" font-family="'Fira Code','JetBrains Mono','Courier New',monospace" font-size="11" font-weight="700" fill="#30363d">BLOQUEADO</text><circle cx="43.5" cy="172" r="3.5" fill="#21262d"/><circle cx="55.5" cy="172" r="3.5" fill="#21262d"/><circle cx="67.5" cy="172" r="3.5" fill="#21262d"/><circle cx="79.5" cy="172" r="3.5" fill="#21262d"/><circle cx="91.5" cy="172" r="3.5" fill="#21262d"/></g></g></svg>