<svg xmlns="http://www.w3.org/2000/svg" viewBox="0 0 1000 140" width="1000" height="140"><defs><linearGradient id="bg" x1="0" y1="0" x2="1" y2="1"><stop offset="0" stop-color="#0d1117"/><stop offset=".5" stop-color="#1a1040"/><stop offset="1" stop-color="#0b2a3a"/></linearGradient></defs><rect width="1000" height="140" fill="url(#bg)"/><path d="M0,80 Q125,66 250,80 T500,80 T750,80 T1000,80 T1250,80 T1500,80 L1500,140 L0,140 Z" fill="#7c3aed" opacity="0.45"><animateTransform attributeName="transform" type="translate" from="0 0" to="-500 0" dur="8s" repeatCount="indefinite"/></path><path d="M0,95 Q125,83 250,95 T500,95 T750,95 T1000,95 T1250,95 T1500,95 L1500,140 L0,140 Z" fill="#06b6d4" opacity="0.4"><animateTransform attributeName="transform" type="translate" from="-500 0" to="0 0" dur="6s" repeatCount="indefinite"/></path><path d="M0,110 Q125,101 250,110 T500,110 T750,110 T1000,110 T1250,110 T1500,110 L1500,140 L0,140 Z" fill="#0d1117" opacity="0.9"><animateTransform attributeName="transform" type="translate" from="0 0" to="-500 0" dur="4s" repeatCount="indefinite"/></path><text x="500" y="55" text-anchor="middle" font-family="'Segoe UI',Roboto,Helvetica,Arial,sans-serif" font-size="22" font-weight="600" fill="#e6edf3">Gracias por pasar. Construyamos algo juntos.<animate attributeName="opacity" values=".5;1;.5" dur="4s" repeatCount="indefinite"/></text></svg>
